HIERARCHY
ROOT Hips
{
    OFFSET   0.000000   0.000000   0.000000
    CHANNELS 6 Xposition Yposition Zposition Zrotation Xrotation Yrotation
    JOINT Chest
    {
        OFFSET   0.000000   8.007240   0.000000
        CHANNELS 3 Zrotation Xrotation Yrotation
        JOINT Chest2
        {
            OFFSET   0.000000  22.077100   0.000000
            CHANNELS 3 Zrotation Xrotation Yrotation
            JOINT Neck
            {
                OFFSET   0.000000  23.254800   0.000000
                CHANNELS 3 Zrotation Xrotation Yrotation
                JOINT Head
                {
                    OFFSET   0.000000  14.370000   1.956600
                    CHANNELS 3 Zrotation Xrotation Yrotation
                    End Site
                    {
                        OFFSET   0.000000  19.566000   0.000000
                    }
                }
            }
            JOINT LeftCollar
            {
                OFFSET   3.911900  19.017000  -0.467064
                CHANNELS 3 Zrotation Xrotation Yrotation
                JOINT LeftShoulder
                {
                    OFFSET  10.383700   0.000000   0.000000
                    CHANNELS 3 Zrotation Xrotation Yrotation
                    JOINT LeftElbow
                    {
                        OFFSET  26.662100   0.001476   0.000517
                        CHANNELS 3 Zrotation Xrotation Yrotation
                        JOINT LeftWrist
                        {
                            OFFSET  28.869000  -0.000025  -0.000106
                            CHANNELS 3 Zrotation Xrotation Yrotation
                            JOINT LeftFinger0
                            {
                                OFFSET   2.044660  -2.323460   3.252850
                                CHANNELS 3 Zrotation Xrotation Yrotation
                                JOINT LeftFinger01
                                {
                                    OFFSET   3.088130   0.000000   0.000000
                                    CHANNELS 3 Zrotation Xrotation Yrotation
                                    JOINT LeftFinger02
                                    {
                                        OFFSET   2.639460   0.000000   0.000000
                                        CHANNELS 3 Zrotation Xrotation Yrotation
                                        End Site
                                        {
                                            OFFSET   2.582190   0.000000   0.000000
                                        }
                                    }
                                }
                            }
                            JOINT LeftFinger1
                            {
                                OFFSET   8.364480   0.000000   3.252850
                                CHANNELS 3 Zrotation Xrotation Yrotation
                                JOINT LeftFinger11
                                {
                                    OFFSET   4.646930   0.000000   0.000000
                                    CHANNELS 3 Zrotation Xrotation Yrotation
                                    JOINT LeftFinger12
                                    {
                                        OFFSET   2.323460   0.000000   0.000000
                                        CHANNELS 3 Zrotation Xrotation Yrotation
                                        End Site
                                        {
                                            OFFSET   2.273050   0.000000   0.000000
                                        }
                                    }
                                }
                            }
                            JOINT LeftFinger2
                            {
                                OFFSET   8.364490   0.000015   1.078090
                                CHANNELS 3 Zrotation Xrotation Yrotation
                                JOINT LeftFinger21
                                {
                                    OFFSET   5.111620   0.000000   0.000000
                                    CHANNELS 3 Zrotation Xrotation Yrotation
                                    JOINT LeftFinger22
                                    {
                                        OFFSET   2.788160   0.000016   0.000000
                                        CHANNELS 3 Zrotation Xrotation Yrotation
                                        End Site
                                        {
                                            OFFSET   2.727660   0.000000   0.000000
                                        }
                                    }
                                }
                            }
                            JOINT LeftFinger3
                            {
                                OFFSET   7.899780   0.000017  -1.078090
                                CHANNELS 3 Zrotation Xrotation Yrotation
                                JOINT LeftFinger31
                                {
                                    OFFSET   4.646930   0.000000   0.000000
                                    CHANNELS 3 Zrotation Xrotation Yrotation
                                    JOINT LeftFinger32
                                    {
                                        OFFSET   2.323470   0.000000   0.000000
                                        CHANNELS 3 Zrotation Xrotation Yrotation
                                        End Site
                                        {
                                            OFFSET   2.273050   0.000000   0.000000
                                        }
                                    }
                                }
                            }
                            JOINT LeftFinger4
                            {
                                OFFSET   7.435090   0.000000  -3.252850
                                CHANNELS 3 Zrotation Xrotation Yrotation
                                JOINT LeftFinger41
                                {
                                    OFFSET   3.717550   0.000000   0.000000
                                    CHANNELS 3 Zrotation Xrotation Yrotation
                                    JOINT LeftFinger42
                                    {
                                        OFFSET   1.858770   0.000000   0.000000
                                        CHANNELS 3 Zrotation Xrotation Yrotation
                                        End Site
                                        {
                                            OFFSET   1.818440   0.000000   0.000000
                                        }
                                    }
                                }
                            }
                        }
                    }
                }
            }
            JOINT RightCollar
            {
                OFFSET  -3.911900  19.017000  -0.467063
                CHANNELS 3 Zrotation Xrotation Yrotation
                JOINT RightShoulder
                {
                    OFFSET -10.383700   0.000019   0.000000
                    CHANNELS 3 Zrotation Xrotation Yrotation
                    JOINT RightElbow
                    {
                        OFFSET -26.662100   0.001175   0.000102
                        CHANNELS 3 Zrotation Xrotation Yrotation
                        JOINT RightWrist
                        {
                            OFFSET -28.869000   0.000016  -0.000079
                            CHANNELS 3 Zrotation Xrotation Yrotation
                            JOINT RightFinger0
                            {
                                OFFSET  -2.044660  -2.323490   3.252850
                                CHANNELS 3 Zrotation Xrotation Yrotation
                                JOINT RightFinger01
                                {
                                    OFFSET  -3.088140   0.000000   0.000000
                                    CHANNELS 3 Zrotation Xrotation Yrotation
                                    JOINT RightFinger02
                                    {
                                        OFFSET  -2.639460   0.000000   0.000000
                                        CHANNELS 3 Zrotation Xrotation Yrotation
                                        End Site
                                        {
                                            OFFSET  -2.582190   0.000000   0.000000
                                        }
                                    }
                                }
                            }
                            JOINT RightFinger1
                            {
                                OFFSET  -8.364480   0.000000   3.252850
                                CHANNELS 3 Zrotation Xrotation Yrotation
                                JOINT RightFinger11
                                {
                                    OFFSET  -4.646930   0.000000   0.000000
                                    CHANNELS 3 Zrotation Xrotation Yrotation
                                    JOINT RightFinger12
                                    {
                                        OFFSET  -2.323470   0.000000   0.000000
                                        CHANNELS 3 Zrotation Xrotation Yrotation
                                        End Site
                                        {
                                            OFFSET  -2.273050   0.000000   0.000000
                                        }
                                    }
                                }
                            }
                            JOINT RightFinger2
                            {
                                OFFSET  -8.364480   0.000000   1.078090
                                CHANNELS 3 Zrotation Xrotation Yrotation
                                JOINT RightFinger21
                                {
                                    OFFSET  -5.111620   0.000000   0.000000
                                    CHANNELS 3 Zrotation Xrotation Yrotation
                                    JOINT RightFinger22
                                    {
                                        OFFSET  -2.788160   0.000000   0.000000
                                        CHANNELS 3 Zrotation Xrotation Yrotation
                                        End Site
                                        {
                                            OFFSET  -2.727660   0.000000   0.000000
                                        }
                                    }
                                }
                            }
                            JOINT RightFinger3
                            {
                                OFFSET  -7.899780   0.000000  -1.078090
                                CHANNELS 3 Zrotation Xrotation Yrotation
                                JOINT RightFinger31
                                {
                                    OFFSET  -4.646930   0.000000   0.000000
                                    CHANNELS 3 Zrotation Xrotation Yrotation
                                    JOINT RightFinger32
                                    {
                                        OFFSET  -2.323470   0.000000   0.000000
                                        CHANNELS 3 Zrotation Xrotation Yrotation
                                        End Site
                                        {
                                            OFFSET  -2.273050   0.000000   0.000000
                                        }
                                    }
                                }
                            }
                            JOINT RightFinger4
                            {
                                OFFSET  -7.435090   0.000000  -3.252850
                                CHANNELS 3 Zrotation Xrotation Yrotation
                                JOINT RightFinger41
                                {
                                    OFFSET  -3.717550   0.000000   0.000000
                                    CHANNELS 3 Zrotation Xrotation Yrotation
                                    JOINT RightFinger42
                                    {
                                        OFFSET  -1.858770   0.000000   0.000000
                                        CHANNELS 3 Zrotation Xrotation Yrotation
                                        End Site
                                        {
                                            OFFSET  -1.818440   0.000000   0.000000
                                        }
                                    }
                                }
                            }
                        }
                    }
                }
            }
        }
    }
    JOINT LeftHip
    {
        OFFSET   9.783040   0.000000   0.000000
        CHANNELS 3 Zrotation Xrotation Yrotation
        JOINT LeftKnee
        {
            OFFSET   0.000032 -41.789100  -0.002222
            CHANNELS 3 Zrotation Xrotation Yrotation
            JOINT LeftAnkle
            {
                OFFSET   0.000087 -41.133200  -0.000135
                CHANNELS 3 Zrotation Xrotation Yrotation
                JOINT LeftToe
                {
                    OFFSET   0.000000  -6.358960  14.674500
                    CHANNELS 3 Zrotation Xrotation Yrotation
                    End Site
                    {
                        OFFSET   0.000000   0.000000   3.913200
                    }
                }
            }
        }
    }
    JOINT RightHip
    {
        OFFSET  -9.783040   0.000000   0.000000
        CHANNELS 3 Zrotation Xrotation Yrotation
        JOINT RightKnee
        {
            OFFSET   0.000047 -41.789100  -0.000896
            CHANNELS 3 Zrotation Xrotation Yrotation
            JOINT RightAnkle
            {
                OFFSET  -0.000117 -41.133300  -0.000248
                CHANNELS 3 Zrotation Xrotation Yrotation
                JOINT RightToe
                {
                    OFFSET   0.000000  -6.358970  14.674500
                    CHANNELS 3 Zrotation Xrotation Yrotation
                    End Site
                    {
                        OFFSET   0.000000   0.000000   3.913200
                    }
                }
            }
        }
    }
}
MOTION
Frames: 4
Frame Time:   0.016667
  1.082490  89.528700   1.069740  -1.342910  -2.447830   0.277323   0.718876   2.940190  -1.089800   1.496640   5.865900  -2.220880   1.355430   0.006698  -0.000865   2.229420   0.012805   2.850290  -7.351850   0.195924   0.314222 -66.760900  16.671200  -6.371170  -1.662420  -6.955750  -7.825430   1.036660 -11.219300   1.032470  48.915100  40.044400 -81.478100 -21.052400  -0.000901   0.004413  -5.527440  -0.002171   0.005227 -30.862400   3.014510  -5.035500 -25.359600  -0.005262   0.011894 -17.751700  -0.004471  -0.013527 -27.842600  -1.058640   2.003550 -31.167400  -0.003597  -0.008008 -20.757500  -0.002406  -0.004894 -27.370500  -3.115630   5.995220 -29.361100  -0.006456   0.008210 -19.554500  -0.005904   0.000685 -30.143500  -3.401960   5.837910 -45.475600  -0.007591   0.001753 -30.286800  -0.004405  -0.003951   8.494780  -2.375420   8.801580  67.756100   8.114730  -1.287220   0.149726  -7.154220   7.221170  -5.531570  -6.797300   3.214610 -48.677300  38.150900  78.051000  13.317200  -0.001628  -0.005597   1.649640   0.001219  -0.002933  28.325700   6.636280  12.101000  23.751700  -0.000959  -0.000827  16.613300  -0.008799   0.002141  27.640000   4.494950   8.509890  31.864600  -0.009449  -0.006347  21.221800  -0.009146  -0.000928  28.085600   3.386860   6.315960  34.029700   0.000564  -0.001080  22.663400  -0.014194   0.011662  33.831600   0.503335   0.754374  50.757300   0.001208  -0.002230  33.801200  -0.011314   0.007210   1.898440   5.164740   2.775040   0.548713   0.313449  12.703300  -3.830260  -2.945360   2.771440   0.000000   0.000000   0.000000  -1.060840   3.183550  -3.257670   0.749188   2.056750 -14.972200  -0.132672  -2.284360  -4.040740   0.000000   0.000000   0.000000
  1.082490  89.528700   1.078230  -1.342950  -2.447940   0.277323   0.718890   2.939370  -1.084510   1.496380   5.864330  -2.210270   1.356050   0.010507  -0.000807   2.229580   0.020835   2.857160  -7.351760   0.195585   0.314125 -66.761000  16.665500  -6.372820  -1.663800  -6.961660  -7.829580   1.034550 -11.218900   1.021660  48.911500  40.045500 -81.479200 -21.052300  -0.000897   0.004416  -5.527240  -0.002168   0.005220 -30.855000   3.014450  -5.035560 -25.353500  -0.005262   0.011895 -17.747400  -0.004470  -0.013526 -27.842500  -1.058540   2.003370 -31.157000  -0.003596  -0.008009 -20.750500  -0.002405  -0.004893 -27.370500  -3.115460   5.994950 -29.353200  -0.006455   0.008208 -19.549300  -0.005903   0.000685 -30.139800  -3.401720   5.837680 -45.470000  -0.007590   0.001755 -30.283100  -0.004404  -0.003949   8.501410  -2.370650   8.801670  67.751000   8.091540  -1.299450   0.151508  -7.153990   7.235930  -5.531540  -6.797640   3.214610 -48.678000  38.150800  78.050300  13.314800  -0.001631  -0.005600   1.651110   0.001226  -0.002921  28.320000   6.636470  12.105000  23.747000  -0.000959  -0.000832  16.613300  -0.008792   0.002136  27.641600   4.489200   8.499430  31.854800  -0.009450  -0.006347  21.215200  -0.009139  -0.000932  28.085800   3.386350   6.315060  34.026500   0.000565  -0.001074  22.661400  -0.014196   0.011660  33.831600   0.503269   0.754299  50.756200   0.001211  -0.002231  33.801200  -0.011312   0.007209   1.897720   5.188620   2.773900   0.546471   0.275655  12.698100  -3.824740  -2.933010   2.780070   0.000000   0.000000   0.000000  -1.060820   3.187460  -3.257630   0.749611   2.052750 -14.972000  -0.132800  -2.284950  -4.040740   0.000000   0.000000  -0.000000
  1.082490  89.528700   1.092330  -1.343050  -2.448110   0.277323   0.718888   2.937740  -1.076100   1.495910   5.861190  -2.193390   1.358930   0.019700  -0.000749   2.232550   0.039864   2.864020  -7.351610   0.195246   0.313446 -66.760600  16.655700  -6.377700  -1.665600  -6.967500  -7.837070   1.032450 -11.218500   1.010860  48.909000  40.050100 -81.485700 -21.052100  -0.000893   0.004418  -5.527040  -0.002165   0.005213 -30.843600   3.014400  -5.035620 -25.344100  -0.005259   0.011895 -17.740900  -0.004467  -0.013523 -27.842400  -1.058440   2.003200 -31.141200  -0.003593  -0.008012 -20.740000  -0.002401  -0.004892 -27.370600  -3.115290   5.994680 -29.341700  -0.006453   0.008204 -19.541600  -0.005899   0.000685 -30.134500  -3.401490   5.837450 -45.461900  -0.007587   0.001760 -30.277600  -0.004402  -0.003944   8.512630  -2.362860   8.801810  67.742500   8.054030  -1.318780   0.153971  -7.153670   7.256160  -5.531390  -6.800000   3.214630 -48.683000  38.149700  78.045700  13.312500  -0.001639  -0.005603   1.656250   0.001234  -0.002908  28.310500   6.636670  12.109100  23.739800  -0.000957  -0.000845  16.613300  -0.008785   0.002126  27.644400   4.479610   8.481890  31.840200  -0.009451  -0.006347  21.205500  -0.009125  -0.000940  28.086800   3.382800   6.308700  34.018600   0.000569  -0.001062  22.656400  -0.014202   0.011658  33.831600   0.503204   0.754194  50.752600   0.001216  -0.002236  33.801200  -0.011307   0.007204   1.897260   5.212510   2.769790   0.544233   0.237861  12.690400  -3.819000  -2.920650   2.793220   0.000000   0.000000   0.000000  -1.060810   3.191360  -3.257530   0.750032   2.048740 -14.971800  -0.133082  -2.287700  -4.040750   0.000000   0.000000  -0.000000
  1.082520  89.528700   1.103540  -1.342990  -2.448180   0.281339   0.718820   2.935670  -1.070050   1.495430   5.857150  -2.181240   1.364810   0.032892  -0.000812   2.241780   0.066657   2.862850  -7.351430   0.197264   0.308818 -66.758800  16.647600  -6.386660  -1.666500  -6.967010  -7.844660   1.038290 -11.221400   1.011040  48.919900  40.062500 -81.504400 -21.052500  -0.000898   0.004406  -5.527090  -0.002164   0.005227 -30.834900   3.014450  -5.035600 -25.337000  -0.005253   0.011896 -17.736200  -0.004464  -0.013521 -27.842300  -1.058470   2.003240 -31.130000  -0.003584  -0.008019 -20.732600  -0.002395  -0.004892 -27.370500  -3.115340   5.994740 -29.334900  -0.006451   0.008197 -19.537100  -0.005891   0.000686 -30.131300  -3.401550   5.837510 -45.457200  -0.007581   0.001766 -30.274400  -0.004399  -0.003937   8.522030  -2.356780   8.801920  67.736200   8.024100  -1.334300   0.155550  -7.158690   7.263360  -5.531080  -6.807280   3.213930 -48.675500  38.129000  78.010400  13.330400  -0.001654  -0.005599   1.667020   0.001232  -0.002932  28.305200   6.624260  12.088600  23.734600  -0.000951  -0.000863  16.613000  -0.008792   0.002113  27.646700   4.471570   8.467030  31.831100  -0.009443  -0.006353  21.199500  -0.009108  -0.000951  28.088600   3.368390   6.282160  34.003200   0.000579  -0.001043  22.646100  -0.014212   0.011662  33.827600   0.503701   0.754149  50.744700   0.001219  -0.002247  33.797100  -0.011297   0.007195   1.898050   5.211230   2.760900   0.543370   0.245409  12.686900  -3.818520  -2.927500   2.801810   0.000000   0.000000   0.000000  -1.060240   3.185650  -3.257410   0.749489   2.062300 -14.971800  -0.129905  -2.294030  -4.043610  -0.000000   0.000000  -0.000000
